<svg width="89" height="91" viewBox="0 0 89 91" fill="none" xmlns="http://www.w3.org/2000/svg">
<path d="M83.8507 30.312C83.6471 30.3979 83.6471 30.7192 83.8507 30.805C84.6514 31.1445 85.0131 31.5464 85.3174 32.4386C85.3947 32.665 85.6826 32.665 85.7599 32.4386C86.0642 31.5464 86.4259 31.1445 87.2265 30.805C87.4302 30.7192 87.4302 30.3979 87.2265 30.312C86.4259 29.9739 86.0642 29.572 85.7599 28.6784C85.6826 28.4521 85.3947 28.4521 85.3174 28.6784C85.0131 29.572 84.6514 29.9739 83.8507 30.312Z" fill="black"/>
<path d="M17.5553 17.8425H0L31.2795 91L39.7763 71.2064L40.0572 70.586L25.3977 36.1846L17.5553 17.8425Z" fill="#342710"/>
<path d="M62.6539 17.9467H45.005L35.3354 40.6459C30.2402 33.2724 26.1738 24.173 26.1738 24.173L35.175 45.7367L35.2067 45.7602L42.0635 61.8689L49.8088 80.5127C49.8088 80.5127 45.9063 70.4208 44.2406 61.0118L44.6316 60.1208L62.6539 17.9467Z" fill="#BBAE97"/>
<path d="M42.9763 58.3531L36.5876 43.3655L36.6497 43.2198L46.386 20.3657H59.2077L42.9763 58.3531ZM37.4047 43.6802L37.4597 43.7752L42.9775 56.7376L58.2245 21.0564H46.7793L37.2747 43.3694L37.4047 43.6802Z" fill="#342710"/>
<path d="M31.284 85.3682L3.4458 20.2606H16.1763L23.4287 37.2187L37.6387 70.5679L37.5755 70.7149L31.284 85.3682ZM4.4302 20.9513L31.284 83.7606L36.9481 70.5653L22.8657 37.5166L15.783 20.9513H4.4302Z" fill="#BBAE97"/>
<path d="M70.2396 33.4142L69.7644 32.0524C69.4928 32.1408 69.2201 32.2163 68.9474 32.2787C68.9216 32.2852 68.8935 32.2917 68.8666 32.2956C68.1655 32.453 67.4433 32.5336 66.7257 32.5336C60.7538 32.5336 55.895 27.1203 55.895 20.4686C55.895 13.817 60.7538 8.40492 66.7257 8.40492C72.6977 8.40492 77.5565 13.817 77.5565 20.4686C77.5565 21.158 77.5038 21.8434 77.3996 22.5068C77.3984 22.5302 77.3949 22.5536 77.3903 22.5757C77.3189 23.0349 77.2229 23.4875 77.1023 23.9336L78.2974 24.4591C79.482 24.9781 80.3739 26.0368 80.7894 27.318C81.061 26.6351 81.2892 25.9275 81.4777 25.2005C81.5877 24.7777 81.885 24.4526 82.2643 24.3381L84.2717 23.7463C84.7598 23.6019 85.1016 23.1077 85.1016 22.5445V18.3928C85.1016 17.8296 84.7598 17.3366 84.2717 17.1909L82.2643 16.5991C81.8838 16.4847 81.5877 16.1569 81.4777 15.7355C81.1687 14.5376 80.7438 13.3943 80.2182 12.3212C80.0309 11.9362 80.0333 11.4745 80.2287 11.096L81.2927 9.05786C81.5479 8.56881 81.4742 7.95229 81.1183 7.55299L78.4823 4.61868C78.1242 4.21937 77.5693 4.13873 77.1327 4.42097L75.3501 5.57467C75.0071 5.79708 74.5857 5.79708 74.2404 5.58117C73.2314 4.95295 72.1546 4.44569 71.0215 4.0828C70.6434 3.96054 70.352 3.62887 70.2501 3.20615L69.707 0.927377C69.5759 0.381096 69.1335 0 68.6278 0H64.9009C64.3953 0 63.9516 0.381096 63.8217 0.927377L63.2786 3.20615C63.1779 3.63147 62.8841 3.96054 62.5049 4.0828C61.4374 4.42488 60.419 4.89572 59.4627 5.47322C59.1174 5.68392 58.7019 5.68002 58.3648 5.46151L56.4826 4.24278C56.0425 3.96054 55.49 4.04118 55.1318 4.43918L52.497 7.37479C52.1377 7.7715 52.0663 8.38932 52.3191 8.87967L53.3854 10.9217C53.5833 11.3015 53.5844 11.7698 53.3901 12.1574C52.8318 13.2707 52.3811 14.4634 52.0557 15.7134C51.9457 16.1348 51.6496 16.4626 51.2703 16.5731L49.1821 17.1909C48.6917 17.3366 48.3511 17.8296 48.3511 18.3928V22.5445C48.3511 23.1077 48.6917 23.6019 49.1821 23.7463L51.2703 24.3641C51.6496 24.476 51.9481 24.8051 52.0569 25.2252C52.3589 26.3893 52.7697 27.5013 53.2754 28.5471C53.4604 28.9295 53.4592 29.3899 53.2625 29.7658L52.1587 31.882C51.9059 32.3698 51.9785 32.9876 52.3367 33.3869L54.9715 36.3212C55.3297 36.7179 55.8821 36.8011 56.3222 36.5163L58.1424 35.3405C58.4853 35.1181 58.9056 35.1181 59.2532 35.334C60.2715 35.9752 61.3613 36.4877 62.5072 36.8571C62.8841 36.9767 63.1779 37.3084 63.2786 37.7311L63.8217 40.0125C63.9516 40.5575 64.3953 40.9373 64.8997 40.9373H68.6278C69.1323 40.9373 69.5759 40.5575 69.7059 40.0125L70.249 37.7311C70.3508 37.3084 70.6458 36.9767 71.025 36.8545C71.5646 36.6828 72.0925 36.4747 72.6052 36.2353C72.6485 36.2158 72.6907 36.1976 72.734 36.1768C71.6126 35.693 70.6891 34.6993 70.2396 33.4142Z" fill="black"/>
<path d="M88.432 41.6617L80.1542 32.4412C79.9166 32.1759 79.7902 31.8104 79.8077 31.4358L79.9166 29.1193C79.9189 29.0855 79.9189 29.0517 79.9189 29.0179C79.9376 27.5299 79.1276 26.1772 77.8834 25.6309L76.7211 25.1185L76.1955 24.887L75.6688 24.6567L74.1237 23.9752C74.0312 23.9362 73.9341 23.9141 73.8358 23.9141C73.6262 23.9141 73.4284 24.0051 73.2809 24.1716L73.2529 24.2002C72.9474 24.541 72.9474 25.0951 73.2529 25.4358L75.08 27.1124L76.1499 28.0931C76.1873 28.136 76.1932 28.1868 76.1932 28.2115C76.1932 28.2388 76.1873 28.2869 76.1499 28.3311L73.7726 30.9806C73.7351 31.0222 73.6906 31.0287 73.666 31.0287C73.6426 31.0287 73.5982 31.0222 73.5595 30.9806L72.6524 29.8061L71.1331 27.8369C70.9774 27.6652 70.7644 27.5663 70.5501 27.5663C70.3992 27.5663 70.2517 27.6145 70.1288 27.7068C69.8162 27.9357 69.6933 28.3663 69.8268 28.7539L70.4249 30.4655L70.6274 31.0456L70.8346 31.6374L71.2946 32.955C71.7722 34.3233 72.9778 35.2429 74.2934 35.2429C74.3391 35.2429 74.3847 35.2416 74.4292 35.239L74.6352 35.226L76.5057 35.1128C76.5268 35.1128 76.549 35.1115 76.5701 35.1115C76.8873 35.1115 77.1846 35.2494 77.4093 35.5004L85.686 44.7196C86.0547 45.1267 86.5405 45.3517 87.0602 45.3517C87.5787 45.3517 88.0645 45.1267 88.432 44.7196C89.1893 43.8767 89.1893 42.5045 88.432 41.6617Z" fill="black"/>
<path d="M65.3123 14.2981L65.8238 22.0514H67.6299L68.1414 14.2981H65.3123Z" fill="black"/>
<path d="M65.7837 23.8024H67.6694V26.2463H65.7837V23.8024Z" fill="black"/>
</svg>
